<svg width="768" height="1174" viewBox="0 0 768 1174" fill="none" xmlns="http://www.w3.org/2000/svg">
<g clip-path="url(#clip0_10_165)">
<rect width="768" height="1174" fill="#F3F5FC"/>
<rect x="40" y="76" width="31" height="48" fill="#E9ECF8"/>
<path fill-rule="evenodd" clip-rule="evenodd" d="M63.3958 96.2683C63.3524 96.537 63.2466 96.7928 63.0863 97.0165C62.926 97.2401 62.7154 97.4259 62.4703 97.5597C61.9766 97.8677 61.5447 98.0217 61.1077 98.1757C60.177 98.4861 59.1974 98.7966 58.1613 99.1567C57.0687 99.5169 56.0891 99.877 55.215 100.138C54.1249 100.498 53.0888 100.808 52.1041 101.168C51.3633 101.475 50.6674 101.874 50.0345 102.356C49.4458 102.871 48.9321 103.461 48.5073 104.109C48.0703 104.829 47.7952 105.758 47.7952 106.841C47.7952 109.009 48.3402 110.659 49.4329 111.689C50.523 112.775 52.5438 113.289 55.5389 113.289C58.5932 113.289 60.6654 112.722 61.7607 111.587C62.8482 110.452 63.3932 108.855 63.3932 106.794V96.2683H63.3958ZM55.5415 73.4187C60.8891 73.4187 64.815 74.3997 67.3217 76.4115C69.831 78.3736 71.0856 80.897 71.0856 83.8873V109.369C71.0856 110.4 70.8696 111.535 70.4891 112.772C70.1035 114.014 69.3425 115.146 68.1418 116.175C66.9977 117.21 65.4166 118.087 63.3984 118.758C61.3802 119.428 58.7629 119.788 55.5441 119.788C52.3304 119.788 49.708 119.428 47.6923 118.758C45.6767 118.087 44.093 117.21 42.9489 116.175C41.8846 115.248 41.0783 114.078 40.6042 112.772C40.2185 111.538 40 110.403 40 109.372V105.299C40 103.131 40.599 101.119 41.7997 99.3629C43.0003 97.5597 44.6894 96.3229 46.8722 95.548C47.9623 95.1879 49.2169 94.8277 50.6335 94.3633C52.0527 93.8964 53.3588 93.4319 54.6699 93.0221C55.9811 92.6074 57.1252 92.1926 58.1048 91.83C58.6959 91.6015 59.2963 91.396 59.9044 91.214L60.8866 90.7496C61.2722 90.5434 61.6501 90.233 62.0332 89.8207C62.4137 89.4109 62.7402 88.9465 63.0153 88.4299C63.306 87.8705 63.4557 87.2526 63.4524 86.6267V84.9751C63.4564 84.3698 63.3249 83.7708 63.0667 83.2192C62.8508 82.5983 62.4137 82.032 61.8147 81.5179C61.2156 81.0013 60.3955 80.589 59.416 80.2761C58.4338 79.9706 57.1278 79.8141 55.6521 79.8141C52.5977 79.8141 50.5795 80.3853 49.4894 81.5675C48.5639 82.6007 48.0189 83.8898 47.9109 85.3328C47.9109 85.6432 47.6383 85.8494 47.3093 85.8494L40.6582 85.9537C40.5002 85.9543 40.3483 85.8947 40.2356 85.7877C40.123 85.6807 40.0586 85.535 40.0566 85.3824V83.8922C40.0566 82.4443 40.3317 81.1031 40.9307 79.8141C41.5323 78.5226 42.4604 77.4422 43.7125 76.5108C44.9671 75.5844 46.6048 74.812 48.5665 74.2954C50.4767 73.6745 52.8214 73.4187 55.5466 73.4187H55.5415Z" fill="#0A3871"/>
<path d="M50 276C57.0909 276 61.0909 271.591 61.0909 264.318C61.0909 257.091 57.0909 252.727 50.3182 252.727H42.8182V276H50ZM45.6364 273.5V255.227H50.1364C55.5909 255.227 58.3636 258.682 58.3636 264.318C58.3636 270 55.5909 273.5 49.8182 273.5H45.6364ZM65.4545 276H68.1364V258.545H65.4545V276ZM66.8182 255.636C67.8636 255.636 68.7273 254.818 68.7273 253.818C68.7273 252.818 67.8636 252 66.8182 252C65.7727 252 64.9091 252.818 64.9091 253.818C64.9091 254.818 65.7727 255.636 66.8182 255.636ZM80.0938 282.909C84.2756 282.909 87.6392 281 87.6392 276.5V258.545H85.0483V261.318H84.7756C84.1847 260.409 83.0938 258.318 79.6847 258.318C75.2756 258.318 72.2301 261.818 72.2301 267.182C72.2301 272.636 75.4119 275.727 79.6392 275.727C83.0483 275.727 84.1392 273.727 84.7301 272.773H84.9574V276.318C84.9574 279.227 82.9119 280.545 80.0938 280.545C76.9233 280.545 75.8097 278.875 75.0938 277.909L72.9574 279.409C74.0483 281.239 76.196 282.909 80.0938 282.909ZM80.0028 273.318C76.6392 273.318 74.9119 270.773 74.9119 267.136C74.9119 263.591 76.5938 260.727 80.0028 260.727C83.2756 260.727 85.0028 263.364 85.0028 267.136C85.0028 271 83.2301 273.318 80.0028 273.318ZM92.5483 276H95.2301V258.545H92.5483V276ZM93.9119 255.636C94.9574 255.636 95.821 254.818 95.821 253.818C95.821 252.818 94.9574 252 93.9119 252C92.8665 252 92.0028 252.818 92.0028 253.818C92.0028 254.818 92.8665 255.636 93.9119 255.636ZM107.733 258.545H104.006V254.364H101.324V258.545H98.6875V260.818H101.324V271.727C101.324 274.773 103.778 276.227 106.051 276.227C107.051 276.227 107.688 276.045 108.051 275.909L107.506 273.5C107.278 273.545 106.915 273.636 106.324 273.636C105.142 273.636 104.006 273.273 104.006 271V260.818H107.733V258.545ZM118.898 276.364C122.443 276.364 125.034 274.591 125.852 271.955L123.261 271.227C122.58 273.045 121 273.955 118.898 273.955C115.75 273.955 113.58 271.92 113.455 268.182H126.125V267.045C126.125 260.545 122.261 258.318 118.625 258.318C113.898 258.318 110.761 262.045 110.761 267.409C110.761 272.773 113.852 276.364 118.898 276.364ZM113.455 265.864C113.636 263.148 115.557 260.727 118.625 260.727C121.534 260.727 123.398 262.909 123.398 265.864H113.455ZM151.568 262.455C150.727 259.977 148.841 258.318 145.386 258.318C141.705 258.318 138.977 260.409 138.977 263.364C138.977 265.773 140.409 267.386 143.614 268.136L146.523 268.818C148.284 269.227 149.114 270.068 149.114 271.273C149.114 272.773 147.523 274 145.023 274C142.83 274 141.455 273.057 140.977 271.182L138.432 271.818C139.057 274.784 141.5 276.364 145.068 276.364C149.125 276.364 151.886 274.148 151.886 271.136C151.886 268.705 150.364 267.17 147.25 266.409L144.659 265.773C142.591 265.261 141.659 264.568 141.659 263.227C141.659 261.727 143.25 260.636 145.386 260.636C147.727 260.636 148.693 261.932 149.159 263.136L151.568 262.455ZM163.241 276.364C166.787 276.364 169.378 274.591 170.196 271.955L167.605 271.227C166.923 273.045 165.344 273.955 163.241 273.955C160.094 273.955 157.923 271.92 157.798 268.182H170.469V267.045C170.469 260.545 166.605 258.318 162.969 258.318C158.241 258.318 155.105 262.045 155.105 267.409C155.105 272.773 158.196 276.364 163.241 276.364ZM157.798 265.864C157.98 263.148 159.901 260.727 162.969 260.727C165.878 260.727 167.741 262.909 167.741 265.864H157.798ZM185.548 268.864C185.548 272.136 183.048 273.636 181.048 273.636C178.821 273.636 177.23 272 177.23 269.455V258.545H174.548V269.636C174.548 274.091 176.912 276.227 180.185 276.227C182.821 276.227 184.548 274.818 185.366 273.045H185.548V276H188.23V258.545H185.548V268.864ZM209.733 258.545H206.006V254.364H203.324V258.545H200.688V260.818H203.324V271.727C203.324 274.773 205.778 276.227 208.051 276.227C209.051 276.227 209.688 276.045 210.051 275.909L209.506 273.5C209.278 273.545 208.915 273.636 208.324 273.636C207.142 273.636 206.006 273.273 206.006 271V260.818H209.733V258.545ZM220.898 276.364C224.443 276.364 227.034 274.591 227.852 271.955L225.261 271.227C224.58 273.045 223 273.955 220.898 273.955C217.75 273.955 215.58 271.92 215.455 268.182H228.125V267.045C228.125 260.545 224.261 258.318 220.625 258.318C215.898 258.318 212.761 262.045 212.761 267.409C212.761 272.773 215.852 276.364 220.898 276.364ZM215.455 265.864C215.636 263.148 217.557 260.727 220.625 260.727C223.534 260.727 225.398 262.909 225.398 265.864H215.455ZM233.736 258.545H230.645L236.19 267.273L230.645 276H233.736L237.918 269.227L242.099 276H245.19L239.554 267.273L245.19 258.545H242.099L237.918 265.682L233.736 258.545ZM256.608 258.545H252.881V254.364H250.199V258.545H247.562V260.818H250.199V271.727C250.199 274.773 252.653 276.227 254.926 276.227C255.926 276.227 256.562 276.045 256.926 275.909L256.381 273.5C256.153 273.545 255.79 273.636 255.199 273.636C254.017 273.636 252.881 273.273 252.881 271V260.818H256.608V258.545ZM267.545 276.364C272.273 276.364 275.455 272.773 275.455 267.364C275.455 261.909 272.273 258.318 267.545 258.318C262.818 258.318 259.636 261.909 259.636 267.364C259.636 272.773 262.818 276.364 267.545 276.364ZM267.545 273.955C263.955 273.955 262.318 270.864 262.318 267.364C262.318 263.864 263.955 260.727 267.545 260.727C271.136 260.727 272.773 263.864 272.773 267.364C272.773 270.864 271.136 273.955 267.545 273.955Z" fill="#0A3871"/>
<g clip-path="url(#clip1_10_165)">
<path d="M56 845C56 847.122 55.1571 849.157 53.6569 850.657C52.1566 852.157 50.1217 853 48 853C45.8783 853 43.8434 852.157 42.3431 850.657C40.8429 849.157 40 847.122 40 845C40 842.878 40.8429 840.843 42.3431 839.343C43.8434 837.843 45.8783 837 48 837C50.1217 837 52.1566 837.843 53.6569 839.343C55.1571 840.843 56 842.878 56 845V845ZM48 841C47.8736 841 47.7486 841.027 47.6331 841.078C47.5176 841.129 47.4141 841.204 47.3293 841.298C47.2446 841.392 47.1803 841.502 47.1408 841.622C47.1013 841.742 47.0874 841.869 47.1 841.995L47.45 845.502C47.4618 845.64 47.5248 845.768 47.6266 845.862C47.7285 845.955 47.8617 846.007 48 846.007C48.1383 846.007 48.2715 845.955 48.3734 845.862C48.4752 845.768 48.5382 845.64 48.55 845.502L48.9 841.995C48.9126 841.869 48.8987 841.742 48.8592 841.622C48.8197 841.502 48.7554 841.392 48.6707 841.298C48.5859 841.204 48.4824 841.129 48.3669 841.078C48.2514 841.027 48.1264 841 48 841V841ZM48.002 847C47.7368 847 47.4824 847.105 47.2949 847.293C47.1074 847.48 47.002 847.735 47.002 848C47.002 848.265 47.1074 848.52 47.2949 848.707C47.4824 848.895 47.7368 849 48.002 849C48.2672 849 48.5216 848.895 48.7091 848.707C48.8966 848.52 49.002 848.265 49.002 848C49.002 847.735 48.8966 847.48 48.7091 847.293C48.5216 847.105 48.2672 847 48.002 847Z" fill="#495057"/>
</g>
<path d="M65.4148 849L66.2926 846.528H69.821L70.6989 849H71.8068L68.6023 840.273H67.5114L64.3068 849H65.4148ZM66.625 845.591L68.0227 841.653H68.0909L69.4886 845.591H66.625ZM73.0298 851.455H74.0355V847.994H74.1207C74.3423 848.352 74.7685 849.136 76.0298 849.136C77.6662 849.136 78.8082 847.824 78.8082 845.744C78.8082 843.682 77.6662 842.369 76.0128 842.369C74.7344 842.369 74.3423 843.153 74.1207 843.494H74.0014V842.455H73.0298V851.455ZM74.0185 845.727C74.0185 844.261 74.6662 843.273 75.8935 843.273C77.1719 843.273 77.8026 844.347 77.8026 845.727C77.8026 847.125 77.1548 848.233 75.8935 848.233C74.6832 848.233 74.0185 847.21 74.0185 845.727ZM83.0866 849.136C84.4162 849.136 85.3878 848.472 85.6946 847.483L84.723 847.21C84.4673 847.892 83.875 848.233 83.0866 848.233C81.9062 848.233 81.0923 847.47 81.0455 846.068H85.7969V845.642C85.7969 843.205 84.348 842.369 82.9844 842.369C81.2116 842.369 80.0355 843.767 80.0355 845.778C80.0355 847.79 81.1946 849.136 83.0866 849.136ZM81.0455 845.199C81.1136 844.18 81.8338 843.273 82.9844 843.273C84.0753 843.273 84.7741 844.091 84.7741 845.199H81.0455ZM88.3324 845.062C88.3324 843.92 89.0398 843.273 90.0028 843.273C90.9361 843.273 91.5028 843.882 91.5028 844.909V849H92.5085V844.841C92.5085 843.17 91.6179 842.369 90.2926 842.369C89.304 842.369 88.6903 842.812 88.3835 843.477H88.2983V842.455H87.3267V849H88.3324V845.062ZM96.2724 849.153C97.4144 849.153 98.011 848.54 98.2156 848.114H98.2667V849H99.2724V844.688C99.2724 842.608 97.6871 842.369 96.8519 842.369C95.8633 842.369 94.7383 842.71 94.2269 843.903L95.1815 844.244C95.4031 843.767 95.9272 843.256 96.886 843.256C97.8107 843.256 98.2667 843.746 98.2667 844.585V844.619C98.2667 845.105 97.7724 845.062 96.5792 845.216C95.3647 845.374 94.0394 845.642 94.0394 847.142C94.0394 848.42 95.0281 849.153 96.2724 849.153ZM96.4258 848.25C95.6246 848.25 95.0451 847.892 95.0451 847.193C95.0451 846.426 95.744 846.188 96.5281 846.085C96.9542 846.034 98.0962 845.915 98.2667 845.71V846.631C98.2667 847.449 97.619 848.25 96.4258 848.25ZM105.744 843.92C105.429 842.991 104.722 842.369 103.426 842.369C102.045 842.369 101.023 843.153 101.023 844.261C101.023 845.165 101.56 845.77 102.761 846.051L103.852 846.307C104.513 846.46 104.824 846.776 104.824 847.227C104.824 847.79 104.227 848.25 103.29 848.25C102.467 848.25 101.952 847.896 101.773 847.193L100.818 847.432C101.053 848.544 101.969 849.136 103.307 849.136C104.828 849.136 105.864 848.305 105.864 847.176C105.864 846.264 105.293 845.689 104.125 845.403L103.153 845.165C102.378 844.973 102.028 844.713 102.028 844.21C102.028 843.648 102.625 843.239 103.426 843.239C104.304 843.239 104.666 843.724 104.841 844.176L105.744 843.92ZM111.758 840.273H110.752V849H111.758V840.273ZM116.344 849.136C117.674 849.136 118.646 848.472 118.952 847.483L117.981 847.21C117.725 847.892 117.133 848.233 116.344 848.233C115.164 848.233 114.35 847.47 114.303 846.068H119.055V845.642C119.055 843.205 117.606 842.369 116.242 842.369C114.469 842.369 113.293 843.767 113.293 845.778C113.293 847.79 114.452 849.136 116.344 849.136ZM114.303 845.199C114.371 844.18 115.092 843.273 116.242 843.273C117.333 843.273 118.032 844.091 118.032 845.199H114.303ZM123.431 842.455H122.033V840.886H121.028V842.455H120.039V843.307H121.028V847.398C121.028 848.54 121.948 849.085 122.8 849.085C123.175 849.085 123.414 849.017 123.55 848.966L123.346 848.062C123.261 848.08 123.124 848.114 122.903 848.114C122.46 848.114 122.033 847.977 122.033 847.125V843.307H123.431V842.455ZM124.944 849H125.95V844.858C125.95 843.972 126.648 843.324 127.603 843.324C127.871 843.324 128.148 843.375 128.217 843.392V842.369C128.102 842.361 127.837 842.352 127.688 842.352C126.904 842.352 126.222 842.795 125.984 843.443H125.915V842.455H124.944V849ZM131.335 849.153C132.477 849.153 133.074 848.54 133.278 848.114H133.329V849H134.335V844.688C134.335 842.608 132.75 842.369 131.914 842.369C130.926 842.369 129.801 842.71 129.289 843.903L130.244 844.244C130.466 843.767 130.99 843.256 131.949 843.256C132.873 843.256 133.329 843.746 133.329 844.585V844.619C133.329 845.105 132.835 845.062 131.642 845.216C130.427 845.374 129.102 845.642 129.102 847.142C129.102 848.42 130.091 849.153 131.335 849.153ZM131.488 848.25C130.687 848.25 130.108 847.892 130.108 847.193C130.108 846.426 130.806 846.188 131.591 846.085C132.017 846.034 133.159 845.915 133.329 845.71V846.631C133.329 847.449 132.681 848.25 131.488 848.25ZM140.807 843.92C140.491 842.991 139.784 842.369 138.489 842.369C137.108 842.369 136.085 843.153 136.085 844.261C136.085 845.165 136.622 845.77 137.824 846.051L138.915 846.307C139.575 846.46 139.886 846.776 139.886 847.227C139.886 847.79 139.29 848.25 138.352 848.25C137.53 848.25 137.014 847.896 136.835 847.193L135.881 847.432C136.115 848.544 137.031 849.136 138.369 849.136C139.891 849.136 140.926 848.305 140.926 847.176C140.926 846.264 140.355 845.689 139.188 845.403L138.216 845.165C137.44 844.973 137.091 844.713 137.091 844.21C137.091 843.648 137.688 843.239 138.489 843.239C139.366 843.239 139.729 843.724 139.903 844.176L140.807 843.92ZM145.815 849H146.821V844.909C146.821 843.95 147.52 843.273 148.304 843.273C149.066 843.273 149.599 843.771 149.599 844.517V849H150.622V844.739C150.622 843.895 151.15 843.273 152.071 843.273C152.787 843.273 153.4 843.652 153.4 844.619V849H154.406V844.619C154.406 843.081 153.579 842.369 152.412 842.369C151.474 842.369 150.788 842.8 150.451 843.477H150.383C150.059 842.778 149.488 842.369 148.627 842.369C147.775 842.369 147.145 842.778 146.872 843.477H146.787V842.455H145.815V849ZM156.245 849H157.25V842.455H156.245V849ZM156.756 841.364C157.148 841.364 157.472 841.057 157.472 840.682C157.472 840.307 157.148 840 156.756 840C156.364 840 156.04 840.307 156.04 840.682C156.04 841.057 156.364 841.364 156.756 841.364ZM160.098 845.062C160.098 843.92 160.805 843.273 161.768 843.273C162.702 843.273 163.268 843.882 163.268 844.909V849H164.274V844.841C164.274 843.17 163.384 842.369 162.058 842.369C161.07 842.369 160.456 842.812 160.149 843.477H160.064V842.455H159.092V849H160.098V845.062ZM170.237 846.324C170.237 847.551 169.299 848.114 168.549 848.114C167.714 848.114 167.118 847.5 167.118 846.545V842.455H166.112V846.614C166.112 848.284 166.998 849.085 168.225 849.085C169.214 849.085 169.862 848.557 170.169 847.892H170.237V849H171.243V842.455H170.237V846.324ZM168.225 841.568H169.112L170.441 839.591H169.265L168.225 841.568ZM177.721 843.92C177.406 842.991 176.698 842.369 175.403 842.369C174.022 842.369 172.999 843.153 172.999 844.261C172.999 845.165 173.536 845.77 174.738 846.051L175.829 846.307C176.489 846.46 176.8 846.776 176.8 847.227C176.8 847.79 176.204 848.25 175.266 848.25C174.444 848.25 173.928 847.896 173.749 847.193L172.795 847.432C173.029 848.544 173.945 849.136 175.283 849.136C176.805 849.136 177.84 848.305 177.84 847.176C177.84 846.264 177.269 845.689 176.102 845.403L175.13 845.165C174.354 844.973 174.005 844.713 174.005 844.21C174.005 843.648 174.602 843.239 175.403 843.239C176.281 843.239 176.643 843.724 176.817 844.176L177.721 843.92ZM182.013 849.136C183.462 849.136 184.417 848.25 184.587 847.091H183.581C183.394 847.807 182.797 848.233 182.013 848.233C180.82 848.233 180.053 847.244 180.053 845.727C180.053 844.244 180.837 843.273 182.013 843.273C182.9 843.273 183.428 843.818 183.581 844.415H184.587C184.417 843.188 183.377 842.369 181.996 842.369C180.223 842.369 179.047 843.767 179.047 845.761C179.047 847.722 180.172 849.136 182.013 849.136ZM190.182 846.324C190.182 847.551 189.245 848.114 188.495 848.114C187.659 848.114 187.063 847.5 187.063 846.545V842.455H186.057V846.614C186.057 848.284 186.944 849.085 188.171 849.085C189.159 849.085 189.807 848.557 190.114 847.892H190.182V849H191.188V842.455H190.182V846.324ZM194.036 840.273H193.03V849H194.036V840.273ZM197.804 849.153C198.946 849.153 199.542 848.54 199.747 848.114H199.798V849H200.804V844.688C200.804 842.608 199.218 842.369 198.383 842.369C197.395 842.369 196.27 842.71 195.758 843.903L196.713 844.244C196.934 843.767 197.458 843.256 198.417 843.256C199.342 843.256 199.798 843.746 199.798 844.585V844.619C199.798 845.105 199.304 845.062 198.11 845.216C196.896 845.374 195.571 845.642 195.571 847.142C195.571 848.42 196.559 849.153 197.804 849.153ZM197.957 848.25C197.156 848.25 196.576 847.892 196.576 847.193C196.576 846.426 197.275 846.188 198.059 846.085C198.485 846.034 199.627 845.915 199.798 845.71V846.631C199.798 847.449 199.15 848.25 197.957 848.25ZM207.276 843.92C206.96 842.991 206.253 842.369 204.957 842.369C203.577 842.369 202.554 843.153 202.554 844.261C202.554 845.165 203.091 845.77 204.293 846.051L205.384 846.307C206.044 846.46 206.355 846.776 206.355 847.227C206.355 847.79 205.759 848.25 204.821 848.25C203.999 848.25 203.483 847.896 203.304 847.193L202.349 847.432C202.584 848.544 203.5 849.136 204.838 849.136C206.359 849.136 207.395 848.305 207.395 847.176C207.395 846.264 206.824 845.689 205.656 845.403L204.685 845.165C203.909 844.973 203.56 844.713 203.56 844.21C203.56 843.648 204.156 843.239 204.957 843.239C205.835 843.239 206.197 843.724 206.372 844.176L207.276 843.92ZM215.028 849.136C216.358 849.136 217.329 848.472 217.636 847.483L216.664 847.21C216.409 847.892 215.816 848.233 215.028 848.233C213.848 848.233 213.034 847.47 212.987 846.068H217.738V845.642C217.738 843.205 216.289 842.369 214.926 842.369C213.153 842.369 211.977 843.767 211.977 845.778C211.977 847.79 213.136 849.136 215.028 849.136ZM212.987 845.199C213.055 844.18 213.775 843.273 214.926 843.273C216.017 843.273 216.716 844.091 216.716 845.199H212.987ZM227.279 843.92C226.964 842.991 226.257 842.369 224.961 842.369C223.581 842.369 222.558 843.153 222.558 844.261C222.558 845.165 223.095 845.77 224.297 846.051L225.387 846.307C226.048 846.46 226.359 846.776 226.359 847.227C226.359 847.79 225.762 848.25 224.825 848.25C224.002 848.25 223.487 847.896 223.308 847.193L222.353 847.432C222.588 848.544 223.504 849.136 224.842 849.136C226.363 849.136 227.399 848.305 227.399 847.176C227.399 846.264 226.828 845.689 225.66 845.403L224.689 845.165C223.913 844.973 223.564 844.713 223.564 844.21C223.564 843.648 224.16 843.239 224.961 843.239C225.839 843.239 226.201 843.724 226.376 844.176L227.279 843.92ZM231.657 849.136C232.987 849.136 233.958 848.472 234.265 847.483L233.293 847.21C233.038 847.892 232.445 848.233 231.657 848.233C230.477 848.233 229.663 847.47 229.616 846.068H234.367V845.642C234.367 843.205 232.918 842.369 231.555 842.369C229.782 842.369 228.606 843.767 228.606 845.778C228.606 847.79 229.765 849.136 231.657 849.136ZM229.616 845.199C229.684 844.18 230.404 843.273 231.555 843.273C232.646 843.273 233.344 844.091 233.344 845.199H229.616ZM235.897 849H236.903V844.909C236.903 843.95 237.602 843.273 238.386 843.273C239.148 843.273 239.681 843.771 239.681 844.517V849H240.704V844.739C240.704 843.895 241.232 843.273 242.153 843.273C242.869 843.273 243.482 843.652 243.482 844.619V849H244.488V844.619C244.488 843.081 243.661 842.369 242.494 842.369C241.556 842.369 240.87 842.8 240.533 843.477H240.465C240.141 842.778 239.57 842.369 238.71 842.369C237.857 842.369 237.227 842.778 236.954 843.477H236.869V842.455H235.897V849ZM251.628 849.153C252.77 849.153 253.366 848.54 253.571 848.114H253.622V849H254.628V844.688C254.628 842.608 253.043 842.369 252.207 842.369C251.219 842.369 250.094 842.71 249.582 843.903L250.537 844.244C250.759 843.767 251.283 843.256 252.241 843.256C253.166 843.256 253.622 843.746 253.622 844.585V844.619C253.622 845.105 253.128 845.062 251.935 845.216C250.72 845.374 249.395 845.642 249.395 847.142C249.395 848.42 250.384 849.153 251.628 849.153ZM251.781 848.25C250.98 848.25 250.401 847.892 250.401 847.193C250.401 846.426 251.099 846.188 251.884 846.085C252.31 846.034 253.452 845.915 253.622 845.71V846.631C253.622 847.449 252.974 848.25 251.781 848.25ZM259.123 849.136C260.571 849.136 261.526 848.25 261.696 847.091H260.691C260.503 847.807 259.907 848.233 259.123 848.233C257.929 848.233 257.162 847.244 257.162 845.727C257.162 844.244 257.946 843.273 259.123 843.273C260.009 843.273 260.537 843.818 260.691 844.415H261.696C261.526 843.188 260.486 842.369 259.105 842.369C257.333 842.369 256.157 843.767 256.157 845.761C256.157 847.722 257.282 849.136 259.123 849.136ZM265.911 849.136C267.24 849.136 268.212 848.472 268.519 847.483L267.547 847.21C267.292 847.892 266.699 848.233 265.911 848.233C264.73 848.233 263.917 847.47 263.87 846.068H268.621V845.642C268.621 843.205 267.172 842.369 265.809 842.369C264.036 842.369 262.86 843.767 262.86 845.778C262.86 847.79 264.019 849.136 265.911 849.136ZM263.87 845.199C263.938 844.18 264.658 843.273 265.809 843.273C266.9 843.273 267.598 844.091 267.598 845.199H263.87ZM271.157 845.062C271.157 843.92 271.864 843.273 272.827 843.273C273.76 843.273 274.327 843.882 274.327 844.909V849H275.333V844.841C275.333 843.17 274.442 842.369 273.117 842.369C272.128 842.369 271.515 842.812 271.208 843.477H271.123V842.455H270.151V849H271.157V845.062ZM280.017 842.455H278.619V840.886H277.614V842.455H276.625V843.307H277.614V847.398C277.614 848.54 278.534 849.085 279.386 849.085C279.761 849.085 280 849.017 280.136 848.966L279.932 848.062C279.847 848.08 279.71 848.114 279.489 848.114C279.045 848.114 278.619 847.977 278.619 847.125V843.307H280.017V842.455ZM284.119 849.136C285.891 849.136 287.085 847.79 287.085 845.761C287.085 843.716 285.891 842.369 284.119 842.369C282.346 842.369 281.153 843.716 281.153 845.761C281.153 847.79 282.346 849.136 284.119 849.136ZM284.119 848.233C282.772 848.233 282.158 847.074 282.158 845.761C282.158 844.449 282.772 843.273 284.119 843.273C285.465 843.273 286.079 844.449 286.079 845.761C286.079 847.074 285.465 848.233 284.119 848.233ZM289.353 849.068C289.775 849.068 290.12 848.723 290.12 848.301C290.12 847.879 289.775 847.534 289.353 847.534C288.931 847.534 288.586 847.879 288.586 848.301C288.586 848.723 288.931 849.068 289.353 849.068Z" fill="#495057"/>
<rect x="40" y="870" width="332" height="67" rx="24" fill="#0A3871"/>
<path d="M170.968 901C170.536 898.614 168.627 897.205 166.286 897.205C163.309 897.205 161.15 899.5 161.15 903.182C161.15 906.864 163.309 909.159 166.286 909.159C168.627 909.159 170.536 907.75 170.968 905.364H169.559C169.218 906.977 167.832 907.841 166.286 907.841C164.173 907.841 162.513 906.205 162.513 903.182C162.513 900.159 164.173 898.523 166.286 898.523C167.832 898.523 169.218 899.386 169.559 901H170.968ZM173.063 909H174.404V903.477C174.404 902.295 175.336 901.432 176.609 901.432C176.967 901.432 177.336 901.5 177.427 901.523V900.159C177.273 900.148 176.921 900.136 176.722 900.136C175.677 900.136 174.768 900.727 174.45 901.591H174.359V900.273H173.063V909ZM179.016 909H180.357V900.273H179.016V909ZM179.698 898.818C180.221 898.818 180.653 898.409 180.653 897.909C180.653 897.409 180.221 897 179.698 897C179.175 897 178.744 897.409 178.744 897.909C178.744 898.409 179.175 898.818 179.698 898.818ZM182.813 912.273H184.154V907.659H184.268C184.563 908.136 185.131 909.182 186.813 909.182C188.995 909.182 190.518 907.432 190.518 904.659C190.518 901.909 188.995 900.159 186.79 900.159C185.086 900.159 184.563 901.205 184.268 901.659H184.109V900.273H182.813V912.273ZM184.131 904.636C184.131 902.682 184.995 901.364 186.631 901.364C188.336 901.364 189.177 902.795 189.177 904.636C189.177 906.5 188.313 907.977 186.631 907.977C185.018 907.977 184.131 906.614 184.131 904.636ZM196.359 900.273H194.495V898.182H193.154V900.273H191.836V901.409H193.154V906.864C193.154 908.386 194.381 909.114 195.518 909.114C196.018 909.114 196.336 909.023 196.518 908.955L196.245 907.75C196.131 907.773 195.95 907.818 195.654 907.818C195.063 907.818 194.495 907.636 194.495 906.5V901.409H196.359V900.273ZM201.827 909.182C204.191 909.182 205.782 907.386 205.782 904.682C205.782 901.955 204.191 900.159 201.827 900.159C199.464 900.159 197.873 901.955 197.873 904.682C197.873 907.386 199.464 909.182 201.827 909.182ZM201.827 907.977C200.032 907.977 199.214 906.432 199.214 904.682C199.214 902.932 200.032 901.364 201.827 901.364C203.623 901.364 204.441 902.932 204.441 904.682C204.441 906.432 203.623 907.977 201.827 907.977ZM211.352 912.455C213.442 912.455 215.124 911.5 215.124 909.25V900.273H213.829V901.659H213.692C213.397 901.205 212.852 900.159 211.147 900.159C208.942 900.159 207.42 901.909 207.42 904.591C207.42 907.318 209.011 908.864 211.124 908.864C212.829 908.864 213.374 907.864 213.67 907.386H213.783V909.159C213.783 910.614 212.761 911.273 211.352 911.273C209.766 911.273 209.21 910.438 208.852 909.955L207.783 910.705C208.329 911.619 209.403 912.455 211.352 912.455ZM211.306 907.659C209.624 907.659 208.761 906.386 208.761 904.568C208.761 902.795 209.602 901.364 211.306 901.364C212.942 901.364 213.806 902.682 213.806 904.568C213.806 906.5 212.92 907.659 211.306 907.659ZM217.579 909H218.92V903.477C218.92 902.295 219.852 901.432 221.124 901.432C221.482 901.432 221.852 901.5 221.942 901.523V900.159C221.789 900.148 221.437 900.136 221.238 900.136C220.192 900.136 219.283 900.727 218.965 901.591H218.874V900.273H217.579V909ZM226.1 909.205C227.623 909.205 228.418 908.386 228.691 907.818H228.759V909H230.1V903.25C230.1 900.477 227.987 900.159 226.873 900.159C225.555 900.159 224.055 900.614 223.373 902.205L224.646 902.659C224.941 902.023 225.64 901.341 226.918 901.341C228.151 901.341 228.759 901.994 228.759 903.114V903.159C228.759 903.807 228.1 903.75 226.509 903.955C224.89 904.165 223.123 904.523 223.123 906.523C223.123 908.227 224.441 909.205 226.1 909.205ZM226.305 908C225.237 908 224.464 907.523 224.464 906.591C224.464 905.568 225.396 905.25 226.441 905.114C227.009 905.045 228.532 904.886 228.759 904.614V905.841C228.759 906.932 227.896 908 226.305 908ZM236.434 900.273H234.479V899.386C234.479 898.523 234.843 898.068 235.729 898.068C236.116 898.068 236.343 898.159 236.479 898.205L236.866 897.045C236.661 896.955 236.252 896.818 235.593 896.818C234.343 896.818 233.138 897.568 233.138 899.068V900.273H231.729V901.409H233.138V909H234.479V901.409H236.434V900.273ZM240.631 909.205C242.154 909.205 242.95 908.386 243.222 907.818H243.29V909H244.631V903.25C244.631 900.477 242.518 900.159 241.404 900.159C240.086 900.159 238.586 900.614 237.904 902.205L239.177 902.659C239.472 902.023 240.171 901.341 241.45 901.341C242.683 901.341 243.29 901.994 243.29 903.114V903.159C243.29 903.807 242.631 903.75 241.04 903.955C239.421 904.165 237.654 904.523 237.654 906.523C237.654 908.227 238.972 909.205 240.631 909.205ZM240.836 908C239.768 908 238.995 907.523 238.995 906.591C238.995 905.568 239.927 905.25 240.972 905.114C241.54 905.045 243.063 904.886 243.29 904.614V905.841C243.29 906.932 242.427 908 240.836 908ZM247.079 909H248.42V903.477C248.42 902.295 249.352 901.432 250.624 901.432C250.982 901.432 251.352 901.5 251.442 901.523V900.159C251.289 900.148 250.937 900.136 250.738 900.136C249.692 900.136 248.783 900.727 248.465 901.591H248.374V900.273H247.079V909Z" fill="white"/>
<path d="M507.961 909C511.506 909 513.506 906.795 513.506 903.159C513.506 899.545 511.506 897.364 508.12 897.364H504.37V909H507.961ZM505.779 907.75V898.614H508.029C510.756 898.614 512.143 900.341 512.143 903.159C512.143 906 510.756 907.75 507.87 907.75H505.779ZM519.347 909.182C521.12 909.182 522.415 908.295 522.825 906.977L521.529 906.614C521.188 907.523 520.398 907.977 519.347 907.977C517.773 907.977 516.688 906.96 516.626 905.091H522.961V904.523C522.961 901.273 521.029 900.159 519.211 900.159C516.847 900.159 515.279 902.023 515.279 904.705C515.279 907.386 516.825 909.182 519.347 909.182ZM516.626 903.932C516.717 902.574 517.677 901.364 519.211 901.364C520.665 901.364 521.597 902.455 521.597 903.932H516.626ZM531.183 902.227C530.762 900.989 529.819 900.159 528.092 900.159C526.251 900.159 524.887 901.205 524.887 902.682C524.887 903.886 525.603 904.693 527.205 905.068L528.66 905.409C529.54 905.614 529.955 906.034 529.955 906.636C529.955 907.386 529.16 908 527.91 908C526.813 908 526.126 907.528 525.887 906.591L524.614 906.909C524.927 908.392 526.148 909.182 527.933 909.182C529.961 909.182 531.342 908.074 531.342 906.568C531.342 905.352 530.58 904.585 529.023 904.205L527.728 903.886C526.694 903.631 526.228 903.284 526.228 902.614C526.228 901.864 527.023 901.318 528.092 901.318C529.262 901.318 529.745 901.966 529.978 902.568L531.183 902.227ZM536.906 909.182C538.837 909.182 540.11 908 540.337 906.455H538.996C538.746 907.409 537.951 907.977 536.906 907.977C535.315 907.977 534.292 906.659 534.292 904.636C534.292 902.659 535.337 901.364 536.906 901.364C538.087 901.364 538.792 902.091 538.996 902.886H540.337C540.11 901.25 538.724 900.159 536.883 900.159C534.519 900.159 532.951 902.023 532.951 904.682C532.951 907.295 534.451 909.182 536.906 909.182ZM542.298 909H543.638V903.477C543.638 902.295 544.57 901.432 545.843 901.432C546.201 901.432 546.57 901.5 546.661 901.523V900.159C546.508 900.148 546.156 900.136 545.957 900.136C544.911 900.136 544.002 900.727 543.684 901.591H543.593V900.273H542.298V909ZM548.251 909H549.592V900.273H548.251V909ZM548.933 898.818C549.455 898.818 549.887 898.409 549.887 897.909C549.887 897.409 549.455 897 548.933 897C548.41 897 547.978 897.409 547.978 897.909C547.978 898.409 548.41 898.818 548.933 898.818ZM552.048 912.273H553.388V907.659H553.502C553.798 908.136 554.366 909.182 556.048 909.182C558.229 909.182 559.752 907.432 559.752 904.659C559.752 901.909 558.229 900.159 556.025 900.159C554.32 900.159 553.798 901.205 553.502 901.659H553.343V900.273H552.048V912.273ZM553.366 904.636C553.366 902.682 554.229 901.364 555.866 901.364C557.57 901.364 558.411 902.795 558.411 904.636C558.411 906.5 557.548 907.977 555.866 907.977C554.252 907.977 553.366 906.614 553.366 904.636ZM565.593 900.273H563.729V898.182H562.388V900.273H561.07V901.409H562.388V906.864C562.388 908.386 563.616 909.114 564.752 909.114C565.252 909.114 565.57 909.023 565.752 908.955L565.479 907.75C565.366 907.773 565.184 907.818 564.888 907.818C564.298 907.818 563.729 907.636 563.729 906.5V901.409H565.593V900.273ZM571.062 909.182C573.425 909.182 575.016 907.386 575.016 904.682C575.016 901.955 573.425 900.159 571.062 900.159C568.698 900.159 567.107 901.955 567.107 904.682C567.107 907.386 568.698 909.182 571.062 909.182ZM571.062 907.977C569.266 907.977 568.448 906.432 568.448 904.682C568.448 902.932 569.266 901.364 571.062 901.364C572.857 901.364 573.675 902.932 573.675 904.682C573.675 906.432 572.857 907.977 571.062 907.977ZM580.586 912.455C582.677 912.455 584.359 911.5 584.359 909.25V900.273H583.063V901.659H582.927C582.631 901.205 582.086 900.159 580.381 900.159C578.177 900.159 576.654 901.909 576.654 904.591C576.654 907.318 578.245 908.864 580.359 908.864C582.063 908.864 582.609 907.864 582.904 907.386H583.018V909.159C583.018 910.614 581.995 911.273 580.586 911.273C579.001 911.273 578.444 910.438 578.086 909.955L577.018 910.705C577.563 911.619 578.637 912.455 580.586 912.455ZM580.54 907.659C578.859 907.659 577.995 906.386 577.995 904.568C577.995 902.795 578.836 901.364 580.54 901.364C582.177 901.364 583.04 902.682 583.04 904.568C583.04 906.5 582.154 907.659 580.54 907.659ZM586.813 909H588.154V903.477C588.154 902.295 589.086 901.432 590.359 901.432C590.717 901.432 591.086 901.5 591.177 901.523V900.159C591.023 900.148 590.671 900.136 590.472 900.136C589.427 900.136 588.518 900.727 588.2 901.591H588.109V900.273H586.813V909ZM595.335 909.205C596.857 909.205 597.653 908.386 597.925 907.818H597.994V909H599.335V903.25C599.335 900.477 597.221 900.159 596.107 900.159C594.789 900.159 593.289 900.614 592.607 902.205L593.88 902.659C594.175 902.023 594.874 901.341 596.153 901.341C597.386 901.341 597.994 901.994 597.994 903.114V903.159C597.994 903.807 597.335 903.75 595.744 903.955C594.124 904.165 592.357 904.523 592.357 906.523C592.357 908.227 593.675 909.205 595.335 909.205ZM595.539 908C594.471 908 593.698 907.523 593.698 906.591C593.698 905.568 594.63 905.25 595.675 905.114C596.244 905.045 597.766 904.886 597.994 904.614V905.841C597.994 906.932 597.13 908 595.539 908ZM605.668 900.273H603.714V899.386C603.714 898.523 604.077 898.068 604.964 898.068C605.35 898.068 605.577 898.159 605.714 898.205L606.1 897.045C605.896 896.955 605.487 896.818 604.827 896.818C603.577 896.818 602.373 897.568 602.373 899.068V900.273H600.964V901.409H602.373V909H603.714V901.409H605.668V900.273ZM609.866 909.205C611.388 909.205 612.184 908.386 612.457 907.818H612.525V909H613.866V903.25C613.866 900.477 611.752 900.159 610.638 900.159C609.32 900.159 607.82 900.614 607.138 902.205L608.411 902.659C608.707 902.023 609.406 901.341 610.684 901.341C611.917 901.341 612.525 901.994 612.525 903.114V903.159C612.525 903.807 611.866 903.75 610.275 903.955C608.656 904.165 606.888 904.523 606.888 906.523C606.888 908.227 608.207 909.205 609.866 909.205ZM610.07 908C609.002 908 608.229 907.523 608.229 906.591C608.229 905.568 609.161 905.25 610.207 905.114C610.775 905.045 612.298 904.886 612.525 904.614V905.841C612.525 906.932 611.661 908 610.07 908ZM616.313 909H617.654V903.477C617.654 902.295 618.586 901.432 619.859 901.432C620.217 901.432 620.586 901.5 620.677 901.523V900.159C620.523 900.148 620.171 900.136 619.972 900.136C618.927 900.136 618.018 900.727 617.7 901.591H617.609V900.273H616.313V909Z" fill="#0A3871"/>
<rect x="396.5" y="870.5" width="331" height="66" rx="23.5" stroke="#0A3871"/>
<g filter="url(#filter0_d_10_165)">
<rect x="40" y="1001" width="688" height="133" rx="32" fill="white" shape-rendering="crispEdges"/>
<path d="M205.808 1038.55H202.135V1049.52H201.981L194.447 1038.55H191.208V1056H194.899V1045.01H195.027L202.62 1056H205.808V1038.55ZM214.755 1056.26C217.993 1056.26 220.175 1054.68 220.686 1052.25L217.328 1052.03C216.962 1053.03 216.025 1053.55 214.814 1053.55C212.999 1053.55 211.848 1052.34 211.848 1050.39V1050.38H220.763V1049.39C220.763 1044.94 218.07 1042.74 214.61 1042.74C210.757 1042.74 208.26 1045.47 208.26 1049.51C208.26 1053.66 210.723 1056.26 214.755 1056.26ZM211.848 1048.13C211.925 1046.64 213.059 1045.45 214.669 1045.45C216.246 1045.45 217.337 1046.57 217.346 1048.13H211.848ZM226.763 1048.43C226.772 1046.74 227.777 1045.76 229.243 1045.76C230.701 1045.76 231.578 1046.71 231.57 1048.31V1056H235.201V1047.66C235.201 1044.61 233.411 1042.74 230.684 1042.74C228.74 1042.74 227.334 1043.69 226.746 1045.22H226.593V1042.91H223.132V1056H226.763V1048.43ZM241.693 1048.43C241.701 1046.74 242.733 1045.76 244.216 1045.76C245.69 1045.76 246.559 1046.7 246.551 1048.31V1056H250.181V1047.66C250.19 1044.6 248.383 1042.74 245.656 1042.74C243.67 1042.74 242.341 1043.68 241.744 1045.22H241.591V1038.55H238.062V1056H241.693V1048.43ZM261.434 1050.43C261.442 1052.18 260.24 1053.1 258.936 1053.1C257.564 1053.1 256.678 1052.14 256.669 1050.6V1042.91H253.039V1051.24C253.047 1054.3 254.837 1056.17 257.471 1056.17C259.439 1056.17 260.854 1055.16 261.442 1053.62H261.578V1056H265.064V1042.91H261.434V1050.43ZM267.968 1056H271.599V1048.14C271.599 1046.69 272.52 1045.73 273.73 1045.73C274.923 1045.73 275.724 1046.55 275.724 1047.84V1056H279.244V1048.01C279.244 1046.65 280.02 1045.73 281.341 1045.73C282.5 1045.73 283.369 1046.45 283.369 1047.91V1056H286.991V1047.2C286.991 1044.36 285.304 1042.74 282.866 1042.74C280.949 1042.74 279.457 1043.72 278.92 1045.22H278.784C278.366 1043.7 277.028 1042.74 275.23 1042.74C273.466 1042.74 272.127 1043.68 271.582 1045.22H271.429V1042.91H267.968V1056ZM293.592 1056.25C295.527 1056.25 296.779 1055.4 297.419 1054.18H297.521V1056H300.964V1047.17C300.964 1044.05 298.322 1042.74 295.407 1042.74C292.271 1042.74 290.208 1044.24 289.706 1046.62L293.064 1046.9C293.311 1046.03 294.086 1045.39 295.39 1045.39C296.626 1045.39 297.333 1046.01 297.333 1047.09V1047.14C297.333 1047.98 296.439 1048.09 294.163 1048.31C291.572 1048.55 289.245 1049.42 289.245 1052.34C289.245 1054.93 291.095 1056.25 293.592 1056.25ZM294.632 1053.74C293.515 1053.74 292.714 1053.22 292.714 1052.22C292.714 1051.2 293.558 1050.7 294.836 1050.52C295.629 1050.41 296.924 1050.22 297.359 1049.93V1051.32C297.359 1052.69 296.225 1053.74 294.632 1053.74ZM309.336 1056H312.966V1048.14C312.966 1046.69 313.887 1045.73 315.097 1045.73C316.29 1045.73 317.091 1046.55 317.091 1047.84V1056H320.611V1048.01C320.611 1046.65 321.387 1045.73 322.708 1045.73C323.867 1045.73 324.736 1046.45 324.736 1047.91V1056H328.358V1047.2C328.358 1044.36 326.671 1042.74 324.233 1042.74C322.316 1042.74 320.824 1043.72 320.287 1045.22H320.151C319.733 1043.7 318.395 1042.74 316.597 1042.74C314.833 1042.74 313.495 1043.68 312.949 1045.22H312.796V1042.91H309.336V1056ZM337.192 1056.26C340.431 1056.26 342.613 1054.68 343.124 1052.25L339.766 1052.03C339.4 1053.03 338.462 1053.55 337.252 1053.55C335.436 1053.55 334.286 1052.34 334.286 1050.39V1050.38H343.201V1049.39C343.201 1044.94 340.507 1042.74 337.047 1042.74C333.195 1042.74 330.698 1045.47 330.698 1049.51C330.698 1053.66 333.161 1056.26 337.192 1056.26ZM334.286 1048.13C334.363 1046.64 335.496 1045.45 337.107 1045.45C338.684 1045.45 339.775 1046.57 339.783 1048.13H334.286ZM349.201 1048.43C349.209 1046.74 350.215 1045.76 351.681 1045.76C353.138 1045.76 354.016 1046.71 354.007 1048.31V1056H357.638V1047.66C357.638 1044.61 355.848 1042.74 353.121 1042.74C351.178 1042.74 349.772 1043.69 349.184 1045.22H349.03V1042.91H345.57V1056H349.201V1048.43ZM371.392 1046.64C371.068 1044.23 369.125 1042.74 365.818 1042.74C362.468 1042.74 360.261 1044.29 360.27 1046.81C360.261 1048.77 361.497 1050.04 364.054 1050.55L366.321 1051.01C367.463 1051.24 367.983 1051.65 368 1052.31C367.983 1053.09 367.139 1053.64 365.869 1053.64C364.574 1053.64 363.713 1053.09 363.491 1052.02L359.92 1052.21C360.261 1054.71 362.392 1056.26 365.86 1056.26C369.252 1056.26 371.681 1054.53 371.69 1051.94C371.681 1050.05 370.446 1048.92 367.906 1048.4L365.537 1047.92C364.318 1047.66 363.866 1047.24 363.875 1046.61C363.866 1045.82 364.752 1045.31 365.877 1045.31C367.139 1045.31 367.889 1046 368.068 1046.85L371.392 1046.64ZM377.709 1056.25C379.644 1056.25 380.897 1055.4 381.536 1054.18H381.638V1056H385.081V1047.17C385.081 1044.05 382.439 1042.74 379.525 1042.74C376.388 1042.74 374.326 1044.24 373.823 1046.62L377.181 1046.9C377.428 1046.03 378.203 1045.39 379.507 1045.39C380.743 1045.39 381.451 1046.01 381.451 1047.09V1047.14C381.451 1047.98 380.556 1048.09 378.28 1048.31C375.689 1048.55 373.363 1049.42 373.363 1052.34C373.363 1054.93 375.212 1056.25 377.709 1056.25ZM378.749 1053.74C377.632 1053.74 376.831 1053.22 376.831 1052.22C376.831 1051.2 377.675 1050.7 378.953 1050.52C379.746 1050.41 381.042 1050.22 381.476 1049.93V1051.32C381.476 1052.69 380.343 1053.74 378.749 1053.74ZM393.796 1061.18C397.537 1061.18 400.196 1059.48 400.196 1056.13V1042.91H396.591V1045.11H396.455C395.969 1044.04 394.904 1042.74 392.713 1042.74C389.841 1042.74 387.412 1044.97 387.412 1049.43C387.412 1053.78 389.773 1055.81 392.722 1055.81C394.81 1055.81 395.978 1054.76 396.455 1053.68H396.608V1056.08C396.608 1057.88 395.458 1058.57 393.881 1058.57C392.279 1058.57 391.469 1057.88 391.171 1057.08L387.813 1057.53C388.248 1059.6 390.267 1061.18 393.796 1061.18ZM393.873 1053.09C392.091 1053.09 391.12 1051.67 391.12 1049.41C391.12 1047.19 392.074 1045.63 393.873 1045.63C395.637 1045.63 396.625 1047.12 396.625 1049.41C396.625 1051.72 395.62 1053.09 393.873 1053.09ZM409.051 1056.26C412.29 1056.26 414.472 1054.68 414.983 1052.25L411.625 1052.03C411.259 1053.03 410.321 1053.55 409.111 1053.55C407.296 1053.55 406.145 1052.34 406.145 1050.39V1050.38H415.06V1049.39C415.06 1044.94 412.367 1042.74 408.907 1042.74C405.054 1042.74 402.557 1045.47 402.557 1049.51C402.557 1053.66 405.02 1056.26 409.051 1056.26ZM406.145 1048.13C406.222 1046.64 407.355 1045.45 408.966 1045.45C410.543 1045.45 411.634 1046.57 411.642 1048.13H406.145ZM417.429 1056H421.06V1048.14C421.06 1046.69 421.98 1045.73 423.191 1045.73C424.384 1045.73 425.185 1046.55 425.185 1047.84V1056H428.705V1048.01C428.705 1046.65 429.48 1045.73 430.801 1045.73C431.961 1045.73 432.83 1046.45 432.83 1047.91V1056H436.452V1047.2C436.452 1044.36 434.765 1042.74 432.327 1042.74C430.409 1042.74 428.918 1043.72 428.381 1045.22H428.245C427.827 1043.7 426.489 1042.74 424.691 1042.74C422.926 1042.74 421.588 1043.68 421.043 1045.22H420.89V1042.91H417.429V1056ZM450.841 1056.26C454.079 1056.26 456.261 1054.68 456.772 1052.25L453.414 1052.03C453.048 1053.03 452.11 1053.55 450.9 1053.55C449.085 1053.55 447.934 1052.34 447.934 1050.39V1050.38H456.849V1049.39C456.849 1044.94 454.156 1042.74 450.696 1042.74C446.843 1042.74 444.346 1045.47 444.346 1049.51C444.346 1053.66 446.809 1056.26 450.841 1056.26ZM447.934 1048.13C448.011 1046.64 449.145 1045.45 450.755 1045.45C452.332 1045.45 453.423 1046.57 453.431 1048.13H447.934ZM462.849 1048.43C462.858 1046.74 463.863 1045.76 465.329 1045.76C466.787 1045.76 467.664 1046.71 467.656 1048.31V1056H471.287V1047.66C471.287 1044.61 469.497 1042.74 466.77 1042.74C464.826 1042.74 463.42 1043.69 462.832 1045.22H462.679V1042.91H459.218V1056H462.849V1048.43ZM480.063 1056.26C483.549 1056.26 485.739 1054.21 485.909 1051.2H482.483C482.27 1052.6 481.35 1053.38 480.105 1053.38C478.409 1053.38 477.31 1051.96 477.31 1049.45C477.31 1046.98 478.418 1045.57 480.105 1045.57C481.435 1045.57 482.287 1046.45 482.483 1047.75H485.909C485.756 1044.72 483.463 1042.74 480.046 1042.74C476.074 1042.74 473.62 1045.49 473.62 1049.51C473.62 1053.49 476.032 1056.26 480.063 1056.26ZM494.149 1056.26C498.12 1056.26 500.592 1053.54 500.592 1049.51C500.592 1045.45 498.12 1042.74 494.149 1042.74C490.177 1042.74 487.706 1045.45 487.706 1049.51C487.706 1053.54 490.177 1056.26 494.149 1056.26ZM494.166 1053.44C492.333 1053.44 491.396 1051.76 491.396 1049.48C491.396 1047.2 492.333 1045.51 494.166 1045.51C495.964 1045.51 496.902 1047.2 496.902 1049.48C496.902 1051.76 495.964 1053.44 494.166 1053.44ZM506.583 1048.43C506.592 1046.74 507.598 1045.76 509.064 1045.76C510.521 1045.76 511.399 1046.71 511.39 1048.31V1056H515.021V1047.66C515.021 1044.61 513.231 1042.74 510.504 1042.74C508.561 1042.74 507.154 1043.69 506.566 1045.22H506.413V1042.91H502.953V1056H506.583V1048.43ZM524.846 1042.91H522.382V1039.77H518.752V1042.91H516.962V1045.64H518.752V1052.45C518.735 1055.02 520.482 1056.29 523.115 1056.18C524.053 1056.14 524.718 1055.96 525.084 1055.84L524.513 1053.14C524.334 1053.17 523.951 1053.26 523.61 1053.26C522.885 1053.26 522.382 1052.98 522.382 1051.98V1045.64H524.846V1042.91ZM527.211 1056H530.841V1048.59C530.841 1046.98 532.017 1045.88 533.62 1045.88C534.123 1045.88 534.813 1045.96 535.154 1046.07V1042.85C534.83 1042.77 534.378 1042.72 534.012 1042.72C532.546 1042.72 531.344 1043.57 530.867 1045.19H530.73V1042.91H527.211V1056ZM540.389 1056.25C542.324 1056.25 543.576 1055.4 544.216 1054.18H544.318V1056H547.761V1047.17C547.761 1044.05 545.119 1042.74 542.204 1042.74C539.068 1042.74 537.005 1044.24 536.502 1046.62L539.86 1046.9C540.108 1046.03 540.883 1045.39 542.187 1045.39C543.423 1045.39 544.13 1046.01 544.13 1047.09V1047.14C544.13 1047.98 543.235 1048.09 540.96 1048.31C538.369 1048.55 536.042 1049.42 536.042 1052.34C536.042 1054.93 537.892 1056.25 540.389 1056.25ZM541.429 1053.74C540.312 1053.74 539.511 1053.22 539.511 1052.22C539.511 1051.2 540.355 1050.7 541.633 1050.52C542.426 1050.41 543.721 1050.22 544.156 1049.93V1051.32C544.156 1052.69 543.022 1053.74 541.429 1053.74ZM555.402 1056.21C557.515 1056.21 558.615 1054.99 559.118 1053.9H559.271V1056H562.85V1038.55H559.228V1045.11H559.118C558.632 1044.04 557.583 1042.74 555.393 1042.74C552.521 1042.74 550.092 1044.97 550.092 1049.47C550.092 1053.85 552.419 1056.21 555.402 1056.21ZM556.552 1053.32C554.771 1053.32 553.799 1051.74 553.799 1049.45C553.799 1047.19 554.754 1045.63 556.552 1045.63C558.316 1045.63 559.305 1047.12 559.305 1049.45C559.305 1051.79 558.299 1053.32 556.552 1053.32ZM569.569 1056.25C571.503 1056.25 572.756 1055.4 573.395 1054.18H573.498V1056H576.941V1047.17C576.941 1044.05 574.299 1042.74 571.384 1042.74C568.248 1042.74 566.185 1044.24 565.682 1046.62L569.04 1046.9C569.287 1046.03 570.063 1045.39 571.367 1045.39C572.603 1045.39 573.31 1046.01 573.31 1047.09V1047.14C573.31 1047.98 572.415 1048.09 570.14 1048.31C567.549 1048.55 565.222 1049.42 565.222 1052.34C565.222 1054.93 567.071 1056.25 569.569 1056.25ZM570.608 1053.74C569.492 1053.74 568.691 1053.22 568.691 1052.22C568.691 1051.2 569.534 1050.7 570.813 1050.52C571.605 1050.41 572.901 1050.22 573.336 1049.93V1051.32C573.336 1052.69 572.202 1053.74 570.608 1053.74Z" fill="#343A40"/>
<path d="M147.031 1096C150.577 1096 152.577 1093.8 152.577 1090.16C152.577 1086.55 150.577 1084.36 147.19 1084.36H143.44V1096H147.031ZM144.849 1094.75V1085.61H147.099C149.827 1085.61 151.213 1087.34 151.213 1090.16C151.213 1093 149.827 1094.75 146.94 1094.75H144.849ZM154.759 1096H156.099V1087.27H154.759V1096ZM155.44 1085.82C155.963 1085.82 156.395 1085.41 156.395 1084.91C156.395 1084.41 155.963 1084 155.44 1084C154.918 1084 154.486 1084.41 154.486 1084.91C154.486 1085.41 154.918 1085.82 155.44 1085.82ZM162.078 1099.45C164.169 1099.45 165.851 1098.5 165.851 1096.25V1087.27H164.555V1088.66H164.419C164.124 1088.2 163.578 1087.16 161.874 1087.16C159.669 1087.16 158.146 1088.91 158.146 1091.59C158.146 1094.32 159.737 1095.86 161.851 1095.86C163.555 1095.86 164.101 1094.86 164.396 1094.39H164.51V1096.16C164.51 1097.61 163.487 1098.27 162.078 1098.27C160.493 1098.27 159.936 1097.44 159.578 1096.95L158.51 1097.7C159.055 1098.62 160.129 1099.45 162.078 1099.45ZM162.033 1094.66C160.351 1094.66 159.487 1093.39 159.487 1091.57C159.487 1089.8 160.328 1088.36 162.033 1088.36C163.669 1088.36 164.533 1089.68 164.533 1091.57C164.533 1093.5 163.646 1094.66 162.033 1094.66ZM168.305 1096H169.646V1087.27H168.305V1096ZM168.987 1085.82C169.51 1085.82 169.942 1085.41 169.942 1084.91C169.942 1084.41 169.51 1084 168.987 1084C168.464 1084 168.033 1084.41 168.033 1084.91C168.033 1085.41 168.464 1085.82 168.987 1085.82ZM175.898 1087.27H174.034V1085.18H172.693V1087.27H171.375V1088.41H172.693V1093.86C172.693 1095.39 173.92 1096.11 175.057 1096.11C175.557 1096.11 175.875 1096.02 176.057 1095.95L175.784 1094.75C175.67 1094.77 175.489 1094.82 175.193 1094.82C174.602 1094.82 174.034 1094.64 174.034 1093.5V1088.41H175.898V1087.27ZM181.48 1096.18C183.253 1096.18 184.548 1095.3 184.957 1093.98L183.662 1093.61C183.321 1094.52 182.531 1094.98 181.48 1094.98C179.906 1094.98 178.821 1093.96 178.759 1092.09H185.094V1091.52C185.094 1088.27 183.162 1087.16 181.344 1087.16C178.98 1087.16 177.412 1089.02 177.412 1091.7C177.412 1094.39 178.957 1096.18 181.48 1096.18ZM178.759 1090.93C178.849 1089.57 179.81 1088.36 181.344 1088.36C182.798 1088.36 183.73 1089.45 183.73 1090.93H178.759ZM197.134 1092.43C197.134 1094.07 195.884 1094.82 194.884 1094.82C193.77 1094.82 192.974 1094 192.974 1092.73V1087.27H191.634V1092.82C191.634 1095.05 192.815 1096.11 194.452 1096.11C195.77 1096.11 196.634 1095.41 197.043 1094.52H197.134V1096H198.474V1087.27H197.134V1092.43ZM200.93 1096H202.271V1090.55C202.271 1089.27 203.203 1088.36 204.249 1088.36C205.266 1088.36 205.976 1089.03 205.976 1090.02V1096H207.339V1090.32C207.339 1089.19 208.044 1088.36 209.271 1088.36C210.226 1088.36 211.044 1088.87 211.044 1090.16V1096H212.385V1090.16C212.385 1088.11 211.283 1087.16 209.726 1087.16C208.476 1087.16 207.561 1087.73 207.112 1088.64H207.021C206.589 1087.7 205.828 1087.16 204.68 1087.16C203.544 1087.16 202.703 1087.7 202.339 1088.64H202.226V1087.27H200.93V1096ZM223.132 1087.27H221.268V1085.18H219.928V1087.27H218.609V1088.41H219.928V1093.86C219.928 1095.39 221.155 1096.11 222.291 1096.11C222.791 1096.11 223.109 1096.02 223.291 1095.95L223.018 1094.75C222.905 1094.77 222.723 1094.82 222.428 1094.82C221.837 1094.82 221.268 1094.64 221.268 1093.5V1088.41H223.132V1087.27ZM228.714 1096.18C230.487 1096.18 231.783 1095.3 232.192 1093.98L230.896 1093.61C230.555 1094.52 229.766 1094.98 228.714 1094.98C227.141 1094.98 226.055 1093.96 225.993 1092.09H232.328V1091.52C232.328 1088.27 230.396 1087.16 228.578 1087.16C226.214 1087.16 224.646 1089.02 224.646 1091.7C224.646 1094.39 226.192 1096.18 228.714 1096.18ZM225.993 1090.93C226.084 1089.57 227.044 1088.36 228.578 1088.36C230.033 1088.36 230.964 1089.45 230.964 1090.93H225.993ZM235.134 1087.27H233.588L236.361 1091.64L233.588 1096H235.134L237.224 1092.61L239.315 1096H240.861L238.043 1091.64L240.861 1087.27H239.315L237.224 1090.84L235.134 1087.27ZM246.57 1087.27H244.706V1085.18H243.365V1087.27H242.047V1088.41H243.365V1093.86C243.365 1095.39 244.592 1096.11 245.729 1096.11C246.229 1096.11 246.547 1096.02 246.729 1095.95L246.456 1094.75C246.342 1094.77 246.161 1094.82 245.865 1094.82C245.274 1094.82 244.706 1094.64 244.706 1093.5V1088.41H246.57V1087.27ZM252.038 1096.18C254.402 1096.18 255.993 1094.39 255.993 1091.68C255.993 1088.95 254.402 1087.16 252.038 1087.16C249.675 1087.16 248.084 1088.95 248.084 1091.68C248.084 1094.39 249.675 1096.18 252.038 1096.18ZM252.038 1094.98C250.243 1094.98 249.425 1093.43 249.425 1091.68C249.425 1089.93 250.243 1088.36 252.038 1088.36C253.834 1088.36 254.652 1089.93 254.652 1091.68C254.652 1093.43 253.834 1094.98 252.038 1094.98ZM269.835 1099.27V1087.27H268.54V1088.66H268.381C268.085 1088.2 267.562 1087.16 265.858 1087.16C263.653 1087.16 262.131 1088.91 262.131 1091.66C262.131 1094.43 263.653 1096.18 265.835 1096.18C267.517 1096.18 268.085 1095.14 268.381 1094.66H268.494V1099.27H269.835ZM268.517 1091.64C268.517 1093.61 267.631 1094.98 266.017 1094.98C264.335 1094.98 263.472 1093.5 263.472 1091.64C263.472 1089.8 264.312 1088.36 266.017 1088.36C267.653 1088.36 268.517 1089.68 268.517 1091.64ZM277.79 1092.43C277.79 1094.07 276.54 1094.82 275.54 1094.82C274.426 1094.82 273.631 1094 273.631 1092.73V1087.27H272.29V1092.82C272.29 1095.05 273.472 1096.11 275.108 1096.11C276.426 1096.11 277.29 1095.41 277.699 1094.52H277.79V1096H279.131V1087.27H277.79V1092.43ZM285.246 1096.18C287.018 1096.18 288.314 1095.3 288.723 1093.98L287.428 1093.61C287.087 1094.52 286.297 1094.98 285.246 1094.98C283.672 1094.98 282.587 1093.96 282.524 1092.09H288.859V1091.52C288.859 1088.27 286.928 1087.16 285.109 1087.16C282.746 1087.16 281.178 1089.02 281.178 1091.7C281.178 1094.39 282.723 1096.18 285.246 1096.18ZM282.524 1090.93C282.615 1089.57 283.575 1088.36 285.109 1088.36C286.564 1088.36 287.496 1089.45 287.496 1090.93H282.524ZM302.536 1087.27H301.081L298.672 1094.23H298.581L296.172 1087.27H294.717L297.945 1096H299.308L302.536 1087.27ZM307.538 1096.18C309.902 1096.18 311.493 1094.39 311.493 1091.68C311.493 1088.95 309.902 1087.16 307.538 1087.16C305.175 1087.16 303.584 1088.95 303.584 1091.68C303.584 1094.39 305.175 1096.18 307.538 1096.18ZM307.538 1094.98C305.743 1094.98 304.925 1093.43 304.925 1091.68C304.925 1089.93 305.743 1088.36 307.538 1088.36C309.334 1088.36 310.152 1089.93 310.152 1091.68C310.152 1093.43 309.334 1094.98 307.538 1094.98ZM317.085 1096.18C319.017 1096.18 320.29 1095 320.517 1093.45H319.176C318.926 1094.41 318.131 1094.98 317.085 1094.98C315.494 1094.98 314.472 1093.66 314.472 1091.64C314.472 1089.66 315.517 1088.36 317.085 1088.36C318.267 1088.36 318.972 1089.09 319.176 1089.89H320.517C320.29 1088.25 318.903 1087.16 317.062 1087.16C314.699 1087.16 313.131 1089.02 313.131 1091.68C313.131 1094.3 314.631 1096.18 317.085 1096.18ZM326.136 1096.18C327.909 1096.18 329.205 1095.3 329.614 1093.98L328.318 1093.61C327.977 1094.52 327.188 1094.98 326.136 1094.98C324.562 1094.98 323.477 1093.96 323.415 1092.09H329.75V1091.52C329.75 1088.27 327.818 1087.16 326 1087.16C323.636 1087.16 322.068 1089.02 322.068 1091.7C322.068 1094.39 323.614 1096.18 326.136 1096.18ZM323.415 1090.93C323.506 1089.57 324.466 1088.36 326 1088.36C327.455 1088.36 328.386 1089.45 328.386 1090.93H323.415ZM324.75 1086.23L325.932 1084.64L327.114 1086.23H328.386V1086.14L326.545 1083.77H325.318L323.477 1086.14V1086.23H324.75ZM339.585 1096.18C341.267 1096.18 341.835 1095.14 342.131 1094.66H342.29V1096H343.585V1084.36H342.244V1088.66H342.131C341.835 1088.2 341.312 1087.16 339.608 1087.16C337.403 1087.16 335.881 1088.91 335.881 1091.66C335.881 1094.43 337.403 1096.18 339.585 1096.18ZM339.767 1094.98C338.085 1094.98 337.222 1093.5 337.222 1091.64C337.222 1089.8 338.062 1088.36 339.767 1088.36C341.403 1088.36 342.267 1089.68 342.267 1091.64C342.267 1093.61 341.381 1094.98 339.767 1094.98ZM349.886 1096.18C351.659 1096.18 352.955 1095.3 353.364 1093.98L352.068 1093.61C351.727 1094.52 350.938 1094.98 349.886 1094.98C348.312 1094.98 347.227 1093.96 347.165 1092.09H353.5V1091.52C353.5 1088.27 351.568 1087.16 349.75 1087.16C347.386 1087.16 345.818 1089.02 345.818 1091.7C345.818 1094.39 347.364 1096.18 349.886 1096.18ZM347.165 1090.93C347.256 1089.57 348.216 1088.36 349.75 1088.36C351.205 1088.36 352.136 1089.45 352.136 1090.93H347.165ZM361.722 1089.23C361.301 1087.99 360.358 1087.16 358.631 1087.16C356.79 1087.16 355.426 1088.2 355.426 1089.68C355.426 1090.89 356.142 1091.69 357.744 1092.07L359.199 1092.41C360.08 1092.61 360.494 1093.03 360.494 1093.64C360.494 1094.39 359.699 1095 358.449 1095C357.352 1095 356.665 1094.53 356.426 1093.59L355.153 1093.91C355.466 1095.39 356.688 1096.18 358.472 1096.18C360.5 1096.18 361.881 1095.07 361.881 1093.57C361.881 1092.35 361.119 1091.59 359.562 1091.2L358.267 1090.89C357.233 1090.63 356.767 1090.28 356.767 1089.61C356.767 1088.86 357.562 1088.32 358.631 1088.32C359.801 1088.32 360.284 1088.97 360.517 1089.57L361.722 1089.23ZM367.558 1096.18C369.331 1096.18 370.626 1095.3 371.036 1093.98L369.74 1093.61C369.399 1094.52 368.609 1094.98 367.558 1094.98C365.984 1094.98 364.899 1093.96 364.837 1092.09H371.172V1091.52C371.172 1088.27 369.24 1087.16 367.422 1087.16C365.058 1087.16 363.49 1089.02 363.49 1091.7C363.49 1094.39 365.036 1096.18 367.558 1096.18ZM364.837 1090.93C364.928 1089.57 365.888 1088.36 367.422 1088.36C368.876 1088.36 369.808 1089.45 369.808 1090.93H364.837ZM373.212 1087.27V1096.64C373.212 1097.52 372.848 1098.02 372.03 1098.02H371.78V1099.27H372.053C373.734 1099.27 374.553 1098.25 374.553 1096.64V1087.27H373.212ZM373.871 1085.82C374.393 1085.82 374.825 1085.41 374.825 1084.91C374.825 1084.41 374.393 1084 373.871 1084C373.348 1084 372.916 1084.41 372.916 1084.91C372.916 1085.41 373.348 1085.82 373.871 1085.82ZM379.577 1096.2C381.099 1096.2 381.895 1095.39 382.168 1094.82H382.236V1096H383.577V1090.25C383.577 1087.48 381.463 1087.16 380.349 1087.16C379.031 1087.16 377.531 1087.61 376.849 1089.2L378.122 1089.66C378.418 1089.02 379.116 1088.34 380.395 1088.34C381.628 1088.34 382.236 1088.99 382.236 1090.11V1090.16C382.236 1090.81 381.577 1090.75 379.986 1090.95C378.366 1091.16 376.599 1091.52 376.599 1093.52C376.599 1095.23 377.918 1096.2 379.577 1096.2ZM379.781 1095C378.713 1095 377.94 1094.52 377.94 1093.59C377.94 1092.57 378.872 1092.25 379.918 1092.11C380.486 1092.05 382.009 1091.89 382.236 1091.61V1092.84C382.236 1093.93 381.372 1095 379.781 1095ZM394.07 1096.18C396.001 1096.18 397.274 1095 397.501 1093.45H396.161C395.911 1094.41 395.115 1094.98 394.07 1094.98C392.479 1094.98 391.456 1093.66 391.456 1091.64C391.456 1089.66 392.501 1088.36 394.07 1088.36C395.251 1088.36 395.956 1089.09 396.161 1089.89H397.501C397.274 1088.25 395.888 1087.16 394.047 1087.16C391.683 1087.16 390.115 1089.02 390.115 1091.68C390.115 1094.3 391.615 1096.18 394.07 1096.18ZM399.462 1096H400.803V1090.48C400.803 1089.3 401.734 1088.43 403.007 1088.43C403.365 1088.43 403.734 1088.5 403.825 1088.52V1087.16C403.672 1087.15 403.32 1087.14 403.121 1087.14C402.075 1087.14 401.166 1087.73 400.848 1088.59H400.757V1087.27H399.462V1096ZM405.415 1096H406.756V1087.27H405.415V1096ZM406.097 1085.82C406.619 1085.82 407.051 1085.41 407.051 1084.91C407.051 1084.41 406.619 1084 406.097 1084C405.574 1084 405.142 1084.41 405.142 1084.91C405.142 1085.41 405.574 1085.82 406.097 1085.82ZM409.212 1099.27H410.553V1094.66H410.666C410.962 1095.14 411.53 1096.18 413.212 1096.18C415.393 1096.18 416.916 1094.43 416.916 1091.66C416.916 1088.91 415.393 1087.16 413.189 1087.16C411.484 1087.16 410.962 1088.2 410.666 1088.66H410.507V1087.27H409.212V1099.27ZM410.53 1091.64C410.53 1089.68 411.393 1088.36 413.03 1088.36C414.734 1088.36 415.575 1089.8 415.575 1091.64C415.575 1093.5 414.712 1094.98 413.03 1094.98C411.416 1094.98 410.53 1093.61 410.53 1091.64ZM422.757 1087.27H420.893V1085.18H419.553V1087.27H418.234V1088.41H419.553V1093.86C419.553 1095.39 420.78 1096.11 421.916 1096.11C422.416 1096.11 422.734 1096.02 422.916 1095.95L422.643 1094.75C422.53 1094.77 422.348 1094.82 422.053 1094.82C421.462 1094.82 420.893 1094.64 420.893 1093.5V1088.41H422.757V1087.27ZM428.226 1096.18C430.589 1096.18 432.18 1094.39 432.18 1091.68C432.18 1088.95 430.589 1087.16 428.226 1087.16C425.862 1087.16 424.271 1088.95 424.271 1091.68C424.271 1094.39 425.862 1096.18 428.226 1096.18ZM428.226 1094.98C426.43 1094.98 425.612 1093.43 425.612 1091.68C425.612 1089.93 426.43 1088.36 428.226 1088.36C430.021 1088.36 430.839 1089.93 430.839 1091.68C430.839 1093.43 430.021 1094.98 428.226 1094.98ZM437.75 1099.45C439.841 1099.45 441.523 1098.5 441.523 1096.25V1087.27H440.227V1088.66H440.091C439.795 1088.2 439.25 1087.16 437.545 1087.16C435.341 1087.16 433.818 1088.91 433.818 1091.59C433.818 1094.32 435.409 1095.86 437.523 1095.86C439.227 1095.86 439.773 1094.86 440.068 1094.39H440.182V1096.16C440.182 1097.61 439.159 1098.27 437.75 1098.27C436.165 1098.27 435.608 1097.44 435.25 1096.95L434.182 1097.7C434.727 1098.62 435.801 1099.45 437.75 1099.45ZM437.705 1094.66C436.023 1094.66 435.159 1093.39 435.159 1091.57C435.159 1089.8 436 1088.36 437.705 1088.36C439.341 1088.36 440.205 1089.68 440.205 1091.57C440.205 1093.5 439.318 1094.66 437.705 1094.66ZM443.977 1096H445.318V1090.48C445.318 1089.3 446.25 1088.43 447.523 1088.43C447.881 1088.43 448.25 1088.5 448.341 1088.52V1087.16C448.188 1087.15 447.835 1087.14 447.636 1087.14C446.591 1087.14 445.682 1087.73 445.364 1088.59H445.273V1087.27H443.977V1096ZM452.499 1096.2C454.021 1096.2 454.817 1095.39 455.089 1094.82H455.158V1096H456.499V1090.25C456.499 1087.48 454.385 1087.16 453.271 1087.16C451.953 1087.16 450.453 1087.61 449.771 1089.2L451.044 1089.66C451.339 1089.02 452.038 1088.34 453.317 1088.34C454.55 1088.34 455.158 1088.99 455.158 1090.11V1090.16C455.158 1090.81 454.499 1090.75 452.908 1090.95C451.288 1091.16 449.521 1091.52 449.521 1093.52C449.521 1095.23 450.839 1096.2 452.499 1096.2ZM452.703 1095C451.635 1095 450.862 1094.52 450.862 1093.59C450.862 1092.57 451.794 1092.25 452.839 1092.11C453.408 1092.05 454.93 1091.89 455.158 1091.61V1092.84C455.158 1093.93 454.294 1095 452.703 1095ZM462.832 1087.27H460.878V1086.39C460.878 1085.52 461.241 1085.07 462.128 1085.07C462.514 1085.07 462.741 1085.16 462.878 1085.2L463.264 1084.05C463.06 1083.95 462.651 1083.82 461.991 1083.82C460.741 1083.82 459.537 1084.57 459.537 1086.07V1087.27H458.128V1088.41H459.537V1096H460.878V1088.41H462.832V1087.27ZM467.03 1096.2C468.553 1096.2 469.348 1095.39 469.621 1094.82H469.689V1096H471.03V1090.25C471.03 1087.48 468.916 1087.16 467.803 1087.16C466.484 1087.16 464.984 1087.61 464.303 1089.2L465.575 1089.66C465.871 1089.02 466.57 1088.34 467.848 1088.34C469.081 1088.34 469.689 1088.99 469.689 1090.11V1090.16C469.689 1090.81 469.03 1090.75 467.439 1090.95C465.82 1091.16 464.053 1091.52 464.053 1093.52C464.053 1095.23 465.371 1096.2 467.03 1096.2ZM467.234 1095C466.166 1095 465.393 1094.52 465.393 1093.59C465.393 1092.57 466.325 1092.25 467.371 1092.11C467.939 1092.05 469.462 1091.89 469.689 1091.61V1092.84C469.689 1093.93 468.825 1095 467.234 1095ZM473.477 1096H474.818V1090.48C474.818 1089.3 475.75 1088.43 477.023 1088.43C477.381 1088.43 477.75 1088.5 477.841 1088.52V1087.16C477.688 1087.15 477.335 1087.14 477.136 1087.14C476.091 1087.14 475.182 1087.73 474.864 1088.59H474.773V1087.27H473.477V1096ZM487.476 1096.18C489.839 1096.18 491.43 1094.39 491.43 1091.68C491.43 1088.95 489.839 1087.16 487.476 1087.16C485.112 1087.16 483.521 1088.95 483.521 1091.68C483.521 1094.39 485.112 1096.18 487.476 1096.18ZM487.476 1094.98C485.68 1094.98 484.862 1093.43 484.862 1091.68C484.862 1089.93 485.68 1088.36 487.476 1088.36C489.271 1088.36 490.089 1089.93 490.089 1091.68C490.089 1093.43 489.271 1094.98 487.476 1094.98ZM498.977 1092.43C498.977 1094.07 497.727 1094.82 496.727 1094.82C495.614 1094.82 494.818 1094 494.818 1092.73V1087.27H493.477V1092.82C493.477 1095.05 494.659 1096.11 496.295 1096.11C497.614 1096.11 498.477 1095.41 498.886 1094.52H498.977V1096H500.318V1087.27H498.977V1092.43ZM510.57 1096.18C512.251 1096.18 512.82 1095.14 513.115 1094.66H513.274V1096H514.57V1084.36H513.229V1088.66H513.115C512.82 1088.2 512.297 1087.16 510.592 1087.16C508.388 1087.16 506.865 1088.91 506.865 1091.66C506.865 1094.43 508.388 1096.18 510.57 1096.18ZM510.751 1094.98C509.07 1094.98 508.206 1093.5 508.206 1091.64C508.206 1089.8 509.047 1088.36 510.751 1088.36C512.388 1088.36 513.251 1089.68 513.251 1091.64C513.251 1093.61 512.365 1094.98 510.751 1094.98ZM520.871 1096.18C522.643 1096.18 523.939 1095.3 524.348 1093.98L523.053 1093.61C522.712 1094.52 521.922 1094.98 520.871 1094.98C519.297 1094.98 518.212 1093.96 518.149 1092.09H524.484V1091.52C524.484 1088.27 522.553 1087.16 520.734 1087.16C518.371 1087.16 516.803 1089.02 516.803 1091.7C516.803 1094.39 518.348 1096.18 520.871 1096.18ZM518.149 1090.93C518.24 1089.57 519.2 1088.36 520.734 1088.36C522.189 1088.36 523.121 1089.45 523.121 1090.93H518.149ZM532.706 1089.23C532.286 1087.99 531.342 1087.16 529.615 1087.16C527.774 1087.16 526.411 1088.2 526.411 1089.68C526.411 1090.89 527.126 1091.69 528.729 1092.07L530.183 1092.41C531.064 1092.61 531.479 1093.03 531.479 1093.64C531.479 1094.39 530.683 1095 529.433 1095C528.337 1095 527.649 1094.53 527.411 1093.59L526.138 1093.91C526.45 1095.39 527.672 1096.18 529.456 1096.18C531.484 1096.18 532.865 1095.07 532.865 1093.57C532.865 1092.35 532.104 1091.59 530.547 1091.2L529.251 1090.89C528.217 1090.63 527.751 1090.28 527.751 1089.61C527.751 1088.86 528.547 1088.32 529.615 1088.32C530.786 1088.32 531.268 1088.97 531.501 1089.57L532.706 1089.23ZM538.429 1096.18C540.361 1096.18 541.634 1095 541.861 1093.45H540.52C540.27 1094.41 539.474 1094.98 538.429 1094.98C536.838 1094.98 535.815 1093.66 535.815 1091.64C535.815 1089.66 536.861 1088.36 538.429 1088.36C539.611 1088.36 540.315 1089.09 540.52 1089.89H541.861C541.634 1088.25 540.247 1087.16 538.406 1087.16C536.043 1087.16 534.474 1089.02 534.474 1091.68C534.474 1094.3 535.974 1096.18 538.429 1096.18ZM543.821 1096H545.162V1090.48C545.162 1089.3 546.094 1088.43 547.366 1088.43C547.724 1088.43 548.094 1088.5 548.185 1088.52V1087.16C548.031 1087.15 547.679 1087.14 547.48 1087.14C546.435 1087.14 545.526 1087.73 545.207 1088.59H545.116V1087.27H543.821V1096ZM549.774 1096H551.115V1087.27H549.774V1096ZM550.456 1085.82C550.979 1085.82 551.411 1085.41 551.411 1084.91C551.411 1084.41 550.979 1084 550.456 1084C549.933 1084 549.501 1084.41 549.501 1084.91C549.501 1085.41 549.933 1085.82 550.456 1085.82ZM553.571 1099.27H554.912V1094.66H555.026C555.321 1095.14 555.889 1096.18 557.571 1096.18C559.753 1096.18 561.276 1094.43 561.276 1091.66C561.276 1088.91 559.753 1087.16 557.548 1087.16C555.844 1087.16 555.321 1088.2 555.026 1088.66H554.866V1087.27H553.571V1099.27ZM554.889 1091.64C554.889 1089.68 555.753 1088.36 557.389 1088.36C559.094 1088.36 559.935 1089.8 559.935 1091.64C559.935 1093.5 559.071 1094.98 557.389 1094.98C555.776 1094.98 554.889 1093.61 554.889 1091.64ZM567.116 1087.27H565.253V1085.18H563.912V1087.27H562.594V1088.41H563.912V1093.86C563.912 1095.39 565.139 1096.11 566.276 1096.11C566.776 1096.11 567.094 1096.02 567.276 1095.95L567.003 1094.75C566.889 1094.77 566.707 1094.82 566.412 1094.82C565.821 1094.82 565.253 1094.64 565.253 1093.5V1088.41H567.116V1087.27ZM572.585 1096.18C574.949 1096.18 576.54 1094.39 576.54 1091.68C576.54 1088.95 574.949 1087.16 572.585 1087.16C570.222 1087.16 568.631 1088.95 568.631 1091.68C568.631 1094.39 570.222 1096.18 572.585 1096.18ZM572.585 1094.98C570.79 1094.98 569.972 1093.43 569.972 1091.68C569.972 1089.93 570.79 1088.36 572.585 1088.36C574.381 1088.36 575.199 1089.93 575.199 1091.68C575.199 1093.43 574.381 1094.98 572.585 1094.98ZM582.109 1099.45C584.2 1099.45 585.882 1098.5 585.882 1096.25V1087.27H584.587V1088.66H584.45C584.155 1088.2 583.609 1087.16 581.905 1087.16C579.7 1087.16 578.178 1088.91 578.178 1091.59C578.178 1094.32 579.768 1095.86 581.882 1095.86C583.587 1095.86 584.132 1094.86 584.428 1094.39H584.541V1096.16C584.541 1097.61 583.518 1098.27 582.109 1098.27C580.524 1098.27 579.967 1097.44 579.609 1096.95L578.541 1097.7C579.087 1098.62 580.161 1099.45 582.109 1099.45ZM582.064 1094.66C580.382 1094.66 579.518 1093.39 579.518 1091.57C579.518 1089.8 580.359 1088.36 582.064 1088.36C583.7 1088.36 584.564 1089.68 584.564 1091.57C584.564 1093.5 583.678 1094.66 582.064 1094.66ZM588.337 1096H589.678V1090.48C589.678 1089.3 590.609 1088.43 591.882 1088.43C592.24 1088.43 592.609 1088.5 592.7 1088.52V1087.16C592.547 1087.15 592.195 1087.14 591.996 1087.14C590.95 1087.14 590.041 1087.73 589.723 1088.59H589.632V1087.27H588.337V1096ZM596.858 1096.2C598.381 1096.2 599.176 1095.39 599.449 1094.82H599.517V1096H600.858V1090.25C600.858 1087.48 598.744 1087.16 597.631 1087.16C596.312 1087.16 594.812 1087.61 594.131 1089.2L595.403 1089.66C595.699 1089.02 596.398 1088.34 597.676 1088.34C598.909 1088.34 599.517 1088.99 599.517 1090.11V1090.16C599.517 1090.81 598.858 1090.75 597.267 1090.95C595.648 1091.16 593.881 1091.52 593.881 1093.52C593.881 1095.23 595.199 1096.2 596.858 1096.2ZM597.062 1095C595.994 1095 595.222 1094.52 595.222 1093.59C595.222 1092.57 596.153 1092.25 597.199 1092.11C597.767 1092.05 599.29 1091.89 599.517 1091.61V1092.84C599.517 1093.93 598.653 1095 597.062 1095ZM607.192 1087.27H605.237V1086.39C605.237 1085.52 605.601 1085.07 606.487 1085.07C606.874 1085.07 607.101 1085.16 607.237 1085.2L607.624 1084.05C607.419 1083.95 607.01 1083.82 606.351 1083.82C605.101 1083.82 603.896 1084.57 603.896 1086.07V1087.27H602.487V1088.41H603.896V1096H605.237V1088.41H607.192V1087.27ZM611.389 1096.2C612.912 1096.2 613.707 1095.39 613.98 1094.82H614.048V1096H615.389V1090.25C615.389 1087.48 613.276 1087.16 612.162 1087.16C610.844 1087.16 609.344 1087.61 608.662 1089.2L609.935 1089.66C610.23 1089.02 610.929 1088.34 612.207 1088.34C613.44 1088.34 614.048 1088.99 614.048 1090.11V1090.16C614.048 1090.81 613.389 1090.75 611.798 1090.95C610.179 1091.16 608.412 1091.52 608.412 1093.52C608.412 1095.23 609.73 1096.2 611.389 1096.2ZM611.594 1095C610.526 1095 609.753 1094.52 609.753 1093.59C609.753 1092.57 610.685 1092.25 611.73 1092.11C612.298 1092.05 613.821 1091.89 614.048 1091.61V1092.84C614.048 1093.93 613.185 1095 611.594 1095ZM617.837 1096H619.178V1090.48C619.178 1089.3 620.109 1088.43 621.382 1088.43C621.74 1088.43 622.109 1088.5 622.2 1088.52V1087.16C622.047 1087.15 621.695 1087.14 621.496 1087.14C620.45 1087.14 619.541 1087.73 619.223 1088.59H619.132V1087.27H617.837V1096ZM623.767 1096.09C624.33 1096.09 624.79 1095.63 624.79 1095.07C624.79 1094.51 624.33 1094.05 623.767 1094.05C623.205 1094.05 622.744 1094.51 622.744 1095.07C622.744 1095.63 623.205 1096.09 623.767 1096.09Z" fill="#495057"/>
</g>
</g>
<defs>
<filter id="filter0_d_10_165" x="16" y="1001" width="736" height="181" filterUnits="userSpaceOnUse" color-interpolation-filters="sRGB">
<feFlood flood-opacity="0" result="BackgroundImageFix"/>
<feColorMatrix in="SourceAlpha" type="matrix" values="0 0 0 0 0 0 0 0 0 0 0 0 0 0 0 0 0 0 127 0" result="hardAlpha"/>
<feMorphology radius="8" operator="erode" in="SourceAlpha" result="effect1_dropShadow_10_165"/>
<feOffset dy="24"/>
<feGaussianBlur stdDeviation="16"/>
<feComposite in2="hardAlpha" operator="out"/>
<feColorMatrix type="matrix" values="0 0 0 0 0 0 0 0 0 0 0 0 0 0 0 0 0 0 0.08 0"/>
<feBlend mode="normal" in2="BackgroundImageFix" result="effect1_dropShadow_10_165"/>
<feBlend mode="normal" in="SourceGraphic" in2="effect1_dropShadow_10_165" result="shape"/>
</filter>
<clipPath id="clip0_10_165">
<rect width="768" height="1174" fill="white"/>
</clipPath>
<clipPath id="clip1_10_165">
<rect width="16" height="16" fill="white" transform="translate(40 837)"/>
</clipPath>
</defs>
</svg>
